<svg xmlns="http://www.w3.org/2000/svg" viewBox="0 0 24 24"><path fill="#000" fill-rule="evenodd" d="m10.45 2.2-.55 2.05c-.55.2-1.07.5-1.55.9L6.3 4.6 4.45 6.45 5 8.5c-.4.48-.7 1-.9 1.55l-2.05.55v2.8l2.05.55c.2.55.5 1.07.9 1.55l-.55 2.05L6.3 19.4l2.05-.55c.48.4 1 .7 1.55.9l.55 2.05h3.1l.55-2.05c.55-.2 1.07-.5 1.55-.9l2.05.55 1.85-1.85L19 15.5c.4-.48.7-1 .9-1.55l2.05-.55v-2.8l-2.05-.55c-.2-.55-.5-1.07-.9-1.55l.55-2.05L17.7 4.6l-2.05.55c-.48-.4-1-.7-1.55-.9l-.55-2.05h-3.1ZM12 8a4 4 0 1 0 0 8 4 4 0 0 0 0-8Z" clip-rule="evenodd"/></svg>
