<svg xmlns="http://www.w3.org/2000/svg" viewBox="0 0 1024 1024" role="img" aria-label="goshkow vpn">
  <path d="M 669 15 L 367 19 L 245 33 L 145 55 L 83 80 L 63 97 L 52 116 L 42 176 L 42 247 L 56 377 L 88 504 L 145 640 L 220 758 L 291 842 L 392 935 L 505 1013 L 517 1013 L 554 990 L 666 903 L 745 822 L 796 756 L 848 670 L 889 583 L 918 498 L 941 398 L 935 393 L 489 394 L 486 407 L 504 455 L 559 554 L 708 560 L 677 623 L 627 691 L 558 760 L 508 798 L 455 758 L 396 700 L 341 630 L 300 561 L 266 487 L 236 398 L 220 317 L 220 244 L 236 228 L 265 219 L 437 203 L 957 203 L 966 193 L 960 83 L 955 64 L 939 51 L 850 31 Z" fill="#ffffff"/>
</svg>
